<svg id="hex-map" version="1.1" xmlns="http://www.w3.org/2000/svg" xmlns:xlink="http://www.w3.org/1999/xlink" viewBox="0 0 1762.85 1057.7"><g class="row"><path id="0" class="hex" fill="#BBC77E" stroke="#444444" data-terrain="1" d="M115.947,50.49L87.085,100.48L29.362,100.48L0.5,50.49L29.362,0.5L87.085,0.5L115.947,50.49Z"></path><path id="1" class="hex" fill="#BBC77E" stroke="#444444" data-terrain="1" d="M289.147,50.49L260.285,100.48L202.562,100.48L173.7,50.49L202.562,0.5L260.285,0.5L289.147,50.49Z"></path><path id="2" class="hex" fill="#BBC77E" stroke="#444444" data-terrain="1" d="M462.347,50.49L433.485,100.48L375.762,100.48L346.9,50.49L375.762,0.5L433.485,0.5L462.347,50.49Z"></path><path id="3" class="hex" fill="#BBC77E" stroke="#444444" data-terrain="1" d="M635.547,50.49L606.685,100.48L548.962,100.48L520.1,50.49L548.962,0.5L606.685,0.5L635.547,50.49Z"></path><path id="4" class="hex" fill="#FFA100" stroke="#444444" data-terrain="8" d="M808.747,50.49L779.885,100.48L722.162,100.48L693.3,50.49L722.162,0.5L779.885,0.5L808.747,50.49Z" opacity="1"></path><path id="5" class="hex" fill="#A67E36" stroke="#444444" data-terrain="6" d="M981.947,50.49L953.085,100.48L895.362,100.48L866.5,50.49L895.362,0.5L953.085,0.5L981.947,50.49Z" opacity="1"></path><path id="6" class="hex" fill="#A67E36" stroke="#444444" data-terrain="6" d="M1155.147,50.49L1126.285,100.48L1068.562,100.48L1039.7,50.49L1068.562,0.5L1126.285,0.5L1155.147,50.49Z" opacity="1"></path><path id="7" class="hex" fill="#75ABDD" stroke="#444444" data-terrain="7" d="M1328.347,50.49L1299.485,100.48L1241.762,100.48L1212.9,50.49L1241.762,0.5L1299.485,0.5L1328.347,50.49Z" opacity="1"></path><path id="8" class="hex" fill="#85A35C" stroke="#444444" data-terrain="2" d="M1501.547,50.49L1472.685,100.48L1414.962,100.48L1386.1,50.49L1414.962,0.5L1472.685,0.5L1501.547,50.49Z" opacity="1"></path><path id="9" class="hex" fill="#A67E36" stroke="#444444" data-terrain="6" d="M1674.747,50.49L1645.885,100.48L1588.162,100.48L1559.3,50.49L1588.162,0.5L1645.885,0.5L1674.747,50.49Z" opacity="1"></path></g><g class="row"><path id="10" class="hex" fill="#656D38" stroke="#444444" data-terrain="3" d="M202.547,100.49L173.685,150.48L115.962,150.48L87.1,100.49L115.962,50.5L173.685,50.5L202.547,100.49Z" opacity="1"></path><path id="11" class="hex" fill="#BBC77E" stroke="#444444" data-terrain="1" d="M375.747,100.49L346.885,150.48L289.162,150.48L260.3,100.49L289.162,50.5L346.885,50.5L375.747,100.49Z"></path><path id="12" class="hex" fill="#666666" stroke="#444444" data-terrain="4" d="M548.947,100.49L520.085,150.48L462.362,150.48L433.5,100.49L462.362,50.5L520.085,50.5L548.947,100.49Z" opacity="1"></path><path id="13" class="hex" fill="#656D38" stroke="#444444" data-terrain="3" d="M722.147,100.49L693.285,150.48L635.562,150.48L606.7,100.49L635.562,50.5L693.285,50.5L722.147,100.49Z" opacity="1"></path><path id="14" class="hex" fill="#FFA100" stroke="#444444" data-terrain="8" d="M895.347,100.49L866.485,150.48L808.762,150.48L779.9,100.49L808.762,50.5L866.485,50.5L895.347,100.49Z" opacity="1"></path><path id="15" class="hex" fill="#A67E36" stroke="#444444" data-terrain="6" d="M1068.547,100.49L1039.685,150.48L981.962,150.48L953.1,100.49L981.962,50.5L1039.685,50.5L1068.547,100.49Z" opacity="1"></path><path id="16" class="hex" fill="#BBC77E" stroke="#444444" data-terrain="1" d="M1241.747,100.49L1212.885,150.48L1155.162,150.48L1126.3,100.49L1155.162,50.5L1212.885,50.5L1241.747,100.49Z"></path><path id="17" class="hex" fill="#75ABDD" stroke="#444444" data-terrain="7" d="M1414.947,100.49L1386.085,150.48L1328.362,150.48L1299.5,100.49L1328.362,50.5L1386.085,50.5L1414.947,100.49Z" opacity="1"></path><path id="18" class="hex" fill="#656D38" stroke="#444444" data-terrain="3" d="M1588.147,100.49L1559.285,150.48L1501.562,150.48L1472.7,100.49L1501.562,50.5L1559.285,50.5L1588.147,100.49Z" opacity="1"></path><path id="19" class="hex" fill="#656D38" stroke="#444444" data-terrain="3" d="M1761.347,100.49L1732.485,150.48L1674.762,150.48L1645.9,100.49L1674.762,50.5L1732.485,50.5L1761.347,100.49Z" opacity="1"></path></g><g class="row"><path id="20" class="hex" fill="#BBC77E" stroke="#444444" data-terrain="1" d="M115.947,150.49L87.085,200.48L29.362,200.48L0.5,150.49L29.362,100.5L87.085,100.5L115.947,150.49Z"></path><path id="21" class="hex" fill="#656D38" stroke="#444444" data-terrain="3" d="M289.147,150.49L260.285,200.48L202.562,200.48L173.7,150.49L202.562,100.5L260.285,100.5L289.147,150.49Z" opacity="1"></path><path id="22" class="hex" fill="#656D38" stroke="#444444" data-terrain="3" d="M462.347,150.49L433.485,200.48L375.762,200.48L346.9,150.49L375.762,100.5L433.485,100.5L462.347,150.49Z" opacity="1"></path><path id="23" class="hex" fill="#656D38" stroke="#444444" data-terrain="3" d="M635.547,150.49L606.685,200.48L548.962,200.48L520.1,150.49L548.962,100.5L606.685,100.5L635.547,150.49Z" opacity="1"></path><path id="24" class="hex" fill="#FFA100" stroke="#444444" data-terrain="8" d="M808.747,150.49L779.885,200.48L722.162,200.48L693.3,150.49L722.162,100.5L779.885,100.5L808.747,150.49Z" opacity="1"></path><path id="25" class="hex" fill="#A67E36" stroke="#444444" data-terrain="6" d="M981.947,150.49L953.085,200.48L895.362,200.48L866.5,150.49L895.362,100.5L953.085,100.5L981.947,150.49Z" opacity="1"></path><path id="26" class="hex" fill="#A67E36" stroke="#444444" data-terrain="6" d="M1155.147,150.49L1126.285,200.48L1068.562,200.48L1039.7,150.49L1068.562,100.5L1126.285,100.5L1155.147,150.49Z" opacity="1"></path><path id="27" class="hex" fill="#BBC77E" stroke="#444444" data-terrain="1" d="M1328.347,150.49L1299.485,200.48L1241.762,200.48L1212.9,150.49L1241.762,100.5L1299.485,100.5L1328.347,150.49Z"></path><path id="28" class="hex" fill="#75ABDD" stroke="#444444" data-terrain="7" d="M1501.547,150.49L1472.685,200.48L1414.962,200.48L1386.1,150.49L1414.962,100.5L1472.685,100.5L1501.547,150.49Z" opacity="1"></path><path id="29" class="hex" fill="#656D38" stroke="#444444" data-terrain="3" d="M1674.747,150.49L1645.885,200.48L1588.162,200.48L1559.3,150.49L1588.162,100.5L1645.885,100.5L1674.747,150.49Z" opacity="1"></path></g><g class="row"><path id="30" class="hex" fill="#656D38" stroke="#444444" data-terrain="3" d="M202.547,200.49L173.685,250.48L115.962,250.48L87.1,200.49L115.962,150.5L173.685,150.5L202.547,200.49Z" opacity="1"></path><path id="31" class="hex" fill="#656D38" stroke="#444444" data-terrain="3" d="M375.747,200.49L346.885,250.48L289.162,250.48L260.3,200.49L289.162,150.5L346.885,150.5L375.747,200.49Z" opacity="1"></path><path id="32" class="hex" fill="#BBC77E" stroke="#444444" data-terrain="1" d="M548.947,200.49L520.085,250.48L462.362,250.48L433.5,200.49L462.362,150.5L520.085,150.5L548.947,200.49Z"></path><path id="33" class="hex" fill="#656D38" stroke="#444444" data-terrain="3" d="M722.147,200.49L693.285,250.48L635.562,250.48L606.7,200.49L635.562,150.5L693.285,150.5L722.147,200.49Z" opacity="1"></path><path id="34" class="hex" fill="#FFA100" stroke="#444444" data-terrain="8" d="M895.347,200.49L866.485,250.48L808.762,250.48L779.9,200.49L808.762,150.5L866.485,150.5L895.347,200.49Z" opacity="1"></path><path id="35" class="hex" fill="#BBC77E" stroke="#444444" data-terrain="1" d="M1068.547,200.49L1039.685,250.48L981.962,250.48L953.1,200.49L981.962,150.5L1039.685,150.5L1068.547,200.49Z"></path><path id="36" class="hex" fill="#A67E36" stroke="#444444" data-terrain="6" d="M1241.747,200.49L1212.885,250.48L1155.162,250.48L1126.3,200.49L1155.162,150.5L1212.885,150.5L1241.747,200.49Z" opacity="1"></path><path id="37" class="hex" fill="#75ABDD" stroke="#444444" data-terrain="7" d="M1414.947,200.49L1386.085,250.48L1328.362,250.48L1299.5,200.49L1328.362,150.5L1386.085,150.5L1414.947,200.49Z" opacity="1"></path><path id="38" class="hex" fill="#85A35C" stroke="#444444" data-terrain="2" d="M1588.147,200.49L1559.285,250.48L1501.562,250.48L1472.7,200.49L1501.562,150.5L1559.285,150.5L1588.147,200.49Z" opacity="1"></path><path id="39" class="hex" fill="#85A35C" stroke="#444444" data-terrain="2" d="M1761.347,200.49L1732.485,250.48L1674.762,250.48L1645.9,200.49L1674.762,150.5L1732.485,150.5L1761.347,200.49Z" opacity="1"></path></g><g class="row"><path id="40" class="hex" fill="#BBC77E" stroke="#444444" data-terrain="1" d="M115.947,250.49L87.085,300.48L29.362,300.48L0.5,250.49L29.362,200.5L87.085,200.5L115.947,250.49Z"></path><path id="41" class="hex" fill="#A67E36" stroke="#444444" data-terrain="6" d="M289.147,250.49L260.285,300.48L202.562,300.48L173.7,250.49L202.562,200.5L260.285,200.5L289.147,250.49Z" opacity="1"></path><path id="42" class="hex" fill="#656D38" stroke="#444444" data-terrain="3" d="M462.347,250.49L433.485,300.48L375.762,300.48L346.9,250.49L375.762,200.5L433.485,200.5L462.347,250.49Z" opacity="1"></path><path id="43" class="hex" fill="#BBC77E" stroke="#444444" data-terrain="1" d="M635.547,250.49L606.685,300.48L548.962,300.48L520.1,250.49L548.962,200.5L606.685,200.5L635.547,250.49Z"></path><path id="44" class="hex" fill="#BBC77E" stroke="#444444" data-terrain="1" d="M808.747,250.49L779.885,300.48L722.162,300.48L693.3,250.49L722.162,200.5L779.885,200.5L808.747,250.49Z"></path><path id="45" class="hex" fill="#BBC77E" stroke="#444444" data-terrain="1" d="M981.947,250.49L953.085,300.48L895.362,300.48L866.5,250.49L895.362,200.5L953.085,200.5L981.947,250.49Z"></path><path id="46" class="hex" fill="#BBC77E" stroke="#444444" data-terrain="1" d="M1155.147,250.49L1126.285,300.48L1068.562,300.48L1039.7,250.49L1068.562,200.5L1126.285,200.5L1155.147,250.49Z"></path><path id="47" class="hex" fill="#BBC77E" stroke="#444444" data-terrain="1" d="M1328.347,250.49L1299.485,300.48L1241.762,300.48L1212.9,250.49L1241.762,200.5L1299.485,200.5L1328.347,250.49Z"></path><path id="48" class="hex" fill="#75ABDD" stroke="#444444" data-terrain="7" d="M1501.547,250.49L1472.685,300.48L1414.962,300.48L1386.1,250.49L1414.962,200.5L1472.685,200.5L1501.547,250.49Z" opacity="1"></path><path id="49" class="hex" fill="#75ABDD" stroke="#444444" data-terrain="7" d="M1674.747,250.49L1645.885,300.48L1588.162,300.48L1559.3,250.49L1588.162,200.5L1645.885,200.5L1674.747,250.49Z" opacity="1"></path></g><g class="row"><path id="50" class="hex" fill="#656D38" stroke="#444444" data-terrain="3" d="M202.547,300.49L173.685,350.48L115.962,350.48L87.1,300.49L115.962,250.5L173.685,250.5L202.547,300.49Z" opacity="1"></path><path id="51" class="hex" fill="#656D38" stroke="#444444" data-terrain="3" d="M375.747,300.49L346.885,350.48L289.162,350.48L260.3,300.49L289.162,250.5L346.885,250.5L375.747,300.49Z" opacity="1"></path><path id="52" class="hex" fill="#656D38" stroke="#444444" data-terrain="3" d="M548.947,300.49L520.085,350.48L462.362,350.48L433.5,300.49L462.362,250.5L520.085,250.5L548.947,300.49Z" opacity="1"></path><path id="53" class="hex" fill="#BBC77E" stroke="#444444" data-terrain="1" d="M722.147,300.49L693.285,350.48L635.562,350.48L606.7,300.49L635.562,250.5L693.285,250.5L722.147,300.49Z"></path><path id="54" class="hex" fill="#656D38" stroke="#444444" data-terrain="3" d="M895.347,300.49L866.485,350.48L808.762,350.48L779.9,300.49L808.762,250.5L866.485,250.5L895.347,300.49Z" opacity="1"></path><path id="55" class="hex" fill="#BBC77E" stroke="#444444" data-terrain="1" d="M1068.547,300.49L1039.685,350.48L981.962,350.48L953.1,300.49L981.962,250.5L1039.685,250.5L1068.547,300.49Z"></path><path id="56" class="hex" fill="#A67E36" stroke="#444444" data-terrain="6" d="M1241.747,300.49L1212.885,350.48L1155.162,350.48L1126.3,300.49L1155.162,250.5L1212.885,250.5L1241.747,300.49Z" opacity="1"></path><path id="57" class="hex" fill="#BBC77E" stroke="#444444" data-terrain="1" d="M1414.947,300.49L1386.085,350.48L1328.362,350.48L1299.5,300.49L1328.362,250.5L1386.085,250.5L1414.947,300.49Z"></path><path id="58" class="hex" fill="#75ABDD" stroke="#444444" data-terrain="7" d="M1588.147,300.49L1559.285,350.48L1501.562,350.48L1472.7,300.49L1501.562,250.5L1559.285,250.5L1588.147,300.49Z" opacity="1"></path><path id="59" class="hex" fill="#75ABDD" stroke="#444444" data-terrain="7" d="M1761.347,300.49L1732.485,350.48L1674.762,350.48L1645.9,300.49L1674.762,250.5L1732.485,250.5L1761.347,300.49Z" opacity="1"></path></g><g class="row"><path id="60" class="hex" fill="#BBC77E" stroke="#444444" data-terrain="1" d="M115.947,350.49L87.085,400.48L29.362,400.48L0.5,350.49L29.362,300.5L87.085,300.5L115.947,350.49Z"></path><path id="61" class="hex" fill="#A67E36" stroke="#444444" data-terrain="6" d="M289.147,350.49L260.285,400.48L202.562,400.48L173.7,350.49L202.562,300.5L260.285,300.5L289.147,350.49Z" opacity="1"></path><path id="62" class="hex" fill="#A67E36" stroke="#444444" data-terrain="6" d="M462.347,350.49L433.485,400.48L375.762,400.48L346.9,350.49L375.762,300.5L433.485,300.5L462.347,350.49Z" opacity="1"></path><path id="63" class="hex" fill="#BBC77E" stroke="#444444" data-terrain="1" d="M635.547,350.49L606.685,400.48L548.962,400.48L520.1,350.49L548.962,300.5L606.685,300.5L635.547,350.49Z"></path><path id="64" class="hex" fill="#656D38" stroke="#444444" data-terrain="3" d="M808.747,350.49L779.885,400.48L722.162,400.48L693.3,350.49L722.162,300.5L779.885,300.5L808.747,350.49Z" opacity="1"></path><path id="65" class="hex" fill="#656D38" stroke="#444444" data-terrain="3" d="M981.947,350.49L953.085,400.48L895.362,400.48L866.5,350.49L895.362,300.5L953.085,300.5L981.947,350.49Z" opacity="1"></path><path id="66" class="hex" fill="#BBC77E" stroke="#444444" data-terrain="1" d="M1155.147,350.49L1126.285,400.48L1068.562,400.48L1039.7,350.49L1068.562,300.5L1126.285,300.5L1155.147,350.49Z"></path><path id="67" class="hex" fill="#BBC77E" stroke="#444444" data-terrain="1" d="M1328.347,350.49L1299.485,400.48L1241.762,400.48L1212.9,350.49L1241.762,300.5L1299.485,300.5L1328.347,350.49Z"></path><path id="68" class="hex" fill="#75ABDD" stroke="#444444" data-terrain="7" d="M1501.547,350.49L1472.685,400.48L1414.962,400.48L1386.1,350.49L1414.962,300.5L1472.685,300.5L1501.547,350.49Z" opacity="1"></path><path id="69" class="hex" fill="#A67E36" stroke="#444444" data-terrain="6" d="M1674.747,350.49L1645.885,400.48L1588.162,400.48L1559.3,350.49L1588.162,300.5L1645.885,300.5L1674.747,350.49Z" opacity="1"></path></g><g class="row"><path id="70" class="hex" fill="#656D38" stroke="#444444" data-terrain="3" d="M202.547,400.49L173.685,450.48L115.962,450.48L87.1,400.49L115.962,350.5L173.685,350.5L202.547,400.49Z" opacity="1"></path><path id="71" class="hex" fill="#A67E36" stroke="#444444" data-terrain="6" d="M375.747,400.49L346.885,450.48L289.162,450.48L260.3,400.49L289.162,350.5L346.885,350.5L375.747,400.49Z" opacity="1"></path><path id="72" class="hex" fill="#656D38" stroke="#444444" data-terrain="3" d="M548.947,400.49L520.085,450.48L462.362,450.48L433.5,400.49L462.362,350.5L520.085,350.5L548.947,400.49Z" opacity="1"></path><path id="73" class="hex" fill="#BBC77E" stroke="#444444" data-terrain="1" d="M722.147,400.49L693.285,450.48L635.562,450.48L606.7,400.49L635.562,350.5L693.285,350.5L722.147,400.49Z"></path><path id="74" class="hex" fill="#656D38" stroke="#444444" data-terrain="3" d="M895.347,400.49L866.485,450.48L808.762,450.48L779.9,400.49L808.762,350.5L866.485,350.5L895.347,400.49Z" opacity="1"></path><path id="75" class="hex" fill="#656D38" stroke="#444444" data-terrain="3" d="M1068.547,400.49L1039.685,450.48L981.962,450.48L953.1,400.49L981.962,350.5L1039.685,350.5L1068.547,400.49Z" opacity="1"></path><path id="76" class="hex" fill="#BBC77E" stroke="#444444" data-terrain="1" d="M1241.747,400.49L1212.885,450.48L1155.162,450.48L1126.3,400.49L1155.162,350.5L1212.885,350.5L1241.747,400.49Z"></path><path id="77" class="hex" fill="#BBC77E" stroke="#444444" data-terrain="1" d="M1414.947,400.49L1386.085,450.48L1328.362,450.48L1299.5,400.49L1328.362,350.5L1386.085,350.5L1414.947,400.49Z"></path><path id="78" class="hex" fill="#A67E36" stroke="#444444" data-terrain="6" d="M1588.147,400.49L1559.285,450.48L1501.562,450.48L1472.7,400.49L1501.562,350.5L1559.285,350.5L1588.147,400.49Z" opacity="1"></path><path id="79" class="hex" fill="#85A35C" stroke="#444444" data-terrain="2" d="M1761.347,400.49L1732.485,450.48L1674.762,450.48L1645.9,400.49L1674.762,350.5L1732.485,350.5L1761.347,400.49Z" opacity="1"></path></g><g class="row"><path id="80" class="hex" fill="#BBC77E" stroke="#444444" data-terrain="1" d="M115.947,450.49L87.085,500.48L29.362,500.48L0.5,450.49L29.362,400.5L87.085,400.5L115.947,450.49Z"></path><path id="81" class="hex" fill="#656D38" stroke="#444444" data-terrain="3" d="M289.147,450.49L260.285,500.48L202.562,500.48L173.7,450.49L202.562,400.5L260.285,400.5L289.147,450.49Z" opacity="1"></path><path id="82" class="hex" fill="#A67E36" stroke="#444444" data-terrain="6" d="M462.347,450.49L433.485,500.48L375.762,500.48L346.9,450.49L375.762,400.5L433.485,400.5L462.347,450.49Z" opacity="1"></path><path id="83" class="hex" fill="#BBC77E" stroke="#444444" data-terrain="1" d="M635.547,450.49L606.685,500.48L548.962,500.48L520.1,450.49L548.962,400.5L606.685,400.5L635.547,450.49Z"></path><path id="84" class="hex" fill="#656D38" stroke="#444444" data-terrain="3" d="M808.747,450.49L779.885,500.48L722.162,500.48L693.3,450.49L722.162,400.5L779.885,400.5L808.747,450.49Z" opacity="1"></path><path id="85" class="hex" fill="#656D38" stroke="#444444" data-terrain="3" d="M981.947,450.49L953.085,500.48L895.362,500.48L866.5,450.49L895.362,400.5L953.085,400.5L981.947,450.49Z" opacity="1"></path><path id="86" class="hex" fill="#BBC77E" stroke="#444444" data-terrain="1" d="M1155.147,450.49L1126.285,500.48L1068.562,500.48L1039.7,450.49L1068.562,400.5L1126.285,400.5L1155.147,450.49Z"></path><path id="87" class="hex" fill="#BBC77E" stroke="#444444" data-terrain="1" d="M1328.347,450.49L1299.485,500.48L1241.762,500.48L1212.9,450.49L1241.762,400.5L1299.485,400.5L1328.347,450.49Z"></path><path id="88" class="hex" fill="#BBC77E" stroke="#444444" data-terrain="1" d="M1501.547,450.49L1472.685,500.48L1414.962,500.48L1386.1,450.49L1414.962,400.5L1472.685,400.5L1501.547,450.49Z"></path><path id="89" class="hex" fill="#A67E36" stroke="#444444" data-terrain="6" d="M1674.747,450.49L1645.885,500.48L1588.162,500.48L1559.3,450.49L1588.162,400.5L1645.885,400.5L1674.747,450.49Z" opacity="1"></path></g><g class="row"><path id="90" class="hex" fill="#656D38" stroke="#444444" data-terrain="3" d="M202.547,500.49L173.685,550.48L115.962,550.48L87.1,500.49L115.962,450.5L173.685,450.5L202.547,500.49Z" opacity="1"></path><path id="91" class="hex" fill="#A67E36" stroke="#444444" data-terrain="6" d="M375.747,500.49L346.885,550.48L289.162,550.48L260.3,500.49L289.162,450.5L346.885,450.5L375.747,500.49Z" opacity="1"></path><path id="92" class="hex" fill="#656D38" stroke="#444444" data-terrain="3" d="M548.947,500.49L520.085,550.48L462.362,550.48L433.5,500.49L462.362,450.5L520.085,450.5L548.947,500.49Z" opacity="1"></path><path id="93" class="hex" fill="#BBC77E" stroke="#444444" data-terrain="1" d="M722.147,500.49L693.285,550.48L635.562,550.48L606.7,500.49L635.562,450.5L693.285,450.5L722.147,500.49Z"></path><path id="94" class="hex" fill="#656D38" stroke="#444444" data-terrain="3" d="M895.347,500.49L866.485,550.48L808.762,550.48L779.9,500.49L808.762,450.5L866.485,450.5L895.347,500.49Z" opacity="1"></path><path id="95" class="hex" fill="#BBC77E" stroke="#444444" data-terrain="1" d="M1068.547,500.49L1039.685,550.48L981.962,550.48L953.1,500.49L981.962,450.5L1039.685,450.5L1068.547,500.49Z"></path><path id="96" class="hex" fill="#BBC77E" stroke="#444444" data-terrain="1" d="M1241.747,500.49L1212.885,550.48L1155.162,550.48L1126.3,500.49L1155.162,450.5L1212.885,450.5L1241.747,500.49Z"></path><path id="97" class="hex" fill="#BBC77E" stroke="#444444" data-terrain="1" d="M1414.947,500.49L1386.085,550.48L1328.362,550.48L1299.5,500.49L1328.362,450.5L1386.085,450.5L1414.947,500.49Z"></path><path id="98" class="hex" fill="#A67E36" stroke="#444444" data-terrain="6" d="M1588.147,500.49L1559.285,550.48L1501.562,550.48L1472.7,500.49L1501.562,450.5L1559.285,450.5L1588.147,500.49Z" opacity="1"></path><path id="99" class="hex" fill="#A67E36" stroke="#444444" data-terrain="6" d="M1761.347,500.49L1732.485,550.48L1674.762,550.48L1645.9,500.49L1674.762,450.5L1732.485,450.5L1761.347,500.49Z" opacity="1"></path></g><g class="row"><path id="100" class="hex" fill="#BBC77E" stroke="#444444" data-terrain="1" d="M115.947,550.49L87.085,600.48L29.362,600.48L0.5,550.49L29.362,500.5L87.085,500.5L115.947,550.49Z"></path><path id="101" class="hex" fill="#656D38" stroke="#444444" data-terrain="3" d="M289.147,550.49L260.285,600.48L202.562,600.48L173.7,550.49L202.562,500.5L260.285,500.5L289.147,550.49Z" opacity="1"></path><path id="102" class="hex" fill="#656D38" stroke="#444444" data-terrain="3" d="M462.347,550.49L433.485,600.48L375.762,600.48L346.9,550.49L375.762,500.5L433.485,500.5L462.347,550.49Z" opacity="1"></path><path id="103" class="hex" fill="#BBC77E" stroke="#444444" data-terrain="1" d="M635.547,550.49L606.685,600.48L548.962,600.48L520.1,550.49L548.962,500.5L606.685,500.5L635.547,550.49Z"></path><path id="104" class="hex" fill="#BBC77E" stroke="#444444" data-terrain="1" d="M808.747,550.49L779.885,600.48L722.162,600.48L693.3,550.49L722.162,500.5L779.885,500.5L808.747,550.49Z"></path><path id="105" class="hex" fill="#BBC77E" stroke="#444444" data-terrain="1" d="M981.947,550.49L953.085,600.48L895.362,600.48L866.5,550.49L895.362,500.5L953.085,500.5L981.947,550.49Z"></path><path id="106" class="hex" fill="#BBC77E" stroke="#444444" data-terrain="1" d="M1155.147,550.49L1126.285,600.48L1068.562,600.48L1039.7,550.49L1068.562,500.5L1126.285,500.5L1155.147,550.49Z"></path><path id="107" class="hex" fill="#BBC77E" stroke="#444444" data-terrain="1" d="M1328.347,550.49L1299.485,600.48L1241.762,600.48L1212.9,550.49L1241.762,500.5L1299.485,500.5L1328.347,550.49Z"></path><path id="108" class="hex" fill="#656D38" stroke="#444444" data-terrain="3" d="M1501.547,550.49L1472.685,600.48L1414.962,600.48L1386.1,550.49L1414.962,500.5L1472.685,500.5L1501.547,550.49Z" opacity="1"></path><path id="109" class="hex" fill="#A67E36" stroke="#444444" data-terrain="6" d="M1674.747,550.49L1645.885,600.48L1588.162,600.48L1559.3,550.49L1588.162,500.5L1645.885,500.5L1674.747,550.49Z" opacity="1"></path></g><g class="row"><path id="110" class="hex" fill="#75ABDD" stroke="#444444" data-terrain="7" d="M202.547,600.49L173.685,650.48L115.962,650.48L87.1,600.49L115.962,550.5L173.685,550.5L202.547,600.49Z" opacity="1"></path><path id="111" class="hex" fill="#656D38" stroke="#444444" data-terrain="3" d="M375.747,600.49L346.885,650.48L289.162,650.48L260.3,600.49L289.162,550.5L346.885,550.5L375.747,600.49Z" opacity="1"></path><path id="112" class="hex" fill="#BBC77E" stroke="#444444" data-terrain="1" d="M548.947,600.49L520.085,650.48L462.362,650.48L433.5,600.49L462.362,550.5L520.085,550.5L548.947,600.49Z"></path><path id="113" class="hex" fill="#BBC77E" stroke="#444444" data-terrain="1" d="M722.147,600.49L693.285,650.48L635.562,650.48L606.7,600.49L635.562,550.5L693.285,550.5L722.147,600.49Z"></path><path id="114" class="hex" fill="#BBC77E" stroke="#444444" data-terrain="1" d="M895.347,600.49L866.485,650.48L808.762,650.48L779.9,600.49L808.762,550.5L866.485,550.5L895.347,600.49Z"></path><path id="115" class="hex" fill="#BBC77E" stroke="#444444" data-terrain="1" d="M1068.547,600.49L1039.685,650.48L981.962,650.48L953.1,600.49L981.962,550.5L1039.685,550.5L1068.547,600.49Z"></path><path id="116" class="hex" fill="#A67E36" stroke="#444444" data-terrain="6" d="M1241.747,600.49L1212.885,650.48L1155.162,650.48L1126.3,600.49L1155.162,550.5L1212.885,550.5L1241.747,600.49Z" opacity="1"></path><path id="117" class="hex" fill="#BBC77E" stroke="#444444" data-terrain="1" d="M1414.947,600.49L1386.085,650.48L1328.362,650.48L1299.5,600.49L1328.362,550.5L1386.085,550.5L1414.947,600.49Z"></path><path id="118" class="hex" fill="#BBC77E" stroke="#444444" data-terrain="1" d="M1588.147,600.49L1559.285,650.48L1501.562,650.48L1472.7,600.49L1501.562,550.5L1559.285,550.5L1588.147,600.49Z"></path><path id="119" class="hex" fill="#BBC77E" stroke="#444444" data-terrain="1" d="M1761.347,600.49L1732.485,650.48L1674.762,650.48L1645.9,600.49L1674.762,550.5L1732.485,550.5L1761.347,600.49Z"></path></g><g class="row"><path id="120" class="hex" fill="#85A35C" stroke="#444444" data-terrain="2" d="M115.947,650.49L87.085,700.48L29.362,700.48L0.5,650.49L29.362,600.5L87.085,600.5L115.947,650.49Z" opacity="1"></path><path id="121" class="hex" fill="#85A35C" stroke="#444444" data-terrain="2" d="M289.147,650.49L260.285,700.48L202.562,700.48L173.7,650.49L202.562,600.5L260.285,600.5L289.147,650.49Z" opacity="1"></path><path id="122" class="hex" fill="#BBC77E" stroke="#444444" data-terrain="1" d="M462.347,650.49L433.485,700.48L375.762,700.48L346.9,650.49L375.762,600.5L433.485,600.5L462.347,650.49Z"></path><path id="123" class="hex" fill="#BBC77E" stroke="#444444" data-terrain="1" d="M635.547,650.49L606.685,700.48L548.962,700.48L520.1,650.49L548.962,600.5L606.685,600.5L635.547,650.49Z"></path><path id="124" class="hex" fill="#BBC77E" stroke="#444444" data-terrain="1" d="M808.747,650.49L779.885,700.48L722.162,700.48L693.3,650.49L722.162,600.5L779.885,600.5L808.747,650.49Z"></path><path id="125" class="hex" fill="#BBC77E" stroke="#444444" data-terrain="1" d="M981.947,650.49L953.085,700.48L895.362,700.48L866.5,650.49L895.362,600.5L953.085,600.5L981.947,650.49Z"></path><path id="126" class="hex" fill="#BBC77E" stroke="#444444" data-terrain="1" d="M1155.147,650.49L1126.285,700.48L1068.562,700.48L1039.7,650.49L1068.562,600.5L1126.285,600.5L1155.147,650.49Z"></path><path id="127" class="hex" fill="#BBC77E" stroke="#444444" data-terrain="1" d="M1328.347,650.49L1299.485,700.48L1241.762,700.48L1212.9,650.49L1241.762,600.5L1299.485,600.5L1328.347,650.49Z"></path><path id="128" class="hex" fill="#656D38" stroke="#444444" data-terrain="3" d="M1501.547,650.49L1472.685,700.48L1414.962,700.48L1386.1,650.49L1414.962,600.5L1472.685,600.5L1501.547,650.49Z" opacity="1"></path><path id="129" class="hex" fill="#656D38" stroke="#444444" data-terrain="3" d="M1674.747,650.49L1645.885,700.48L1588.162,700.48L1559.3,650.49L1588.162,600.5L1645.885,600.5L1674.747,650.49Z" opacity="1"></path></g><g class="row"><path id="130" class="hex" fill="#75ABDD" stroke="#444444" data-terrain="7" d="M202.547,700.49L173.685,750.48L115.962,750.48L87.1,700.49L115.962,650.5L173.685,650.5L202.547,700.49Z" opacity="1"></path><path id="131" class="hex" fill="#BBC77E" stroke="#444444" data-terrain="1" d="M375.747,700.49L346.885,750.48L289.162,750.48L260.3,700.49L289.162,650.5L346.885,650.5L375.747,700.49Z"></path><path id="132" class="hex" fill="#BBC77E" stroke="#444444" data-terrain="1" d="M548.947,700.49L520.085,750.48L462.362,750.48L433.5,700.49L462.362,650.5L520.085,650.5L548.947,700.49Z"></path><path id="133" class="hex" fill="#BBC77E" stroke="#444444" data-terrain="1" d="M722.147,700.49L693.285,750.48L635.562,750.48L606.7,700.49L635.562,650.5L693.285,650.5L722.147,700.49Z"></path><path id="134" class="hex" fill="#A67E36" stroke="#444444" data-terrain="6" d="M895.347,700.49L866.485,750.48L808.762,750.48L779.9,700.49L808.762,650.5L866.485,650.5L895.347,700.49Z" opacity="1"></path><path id="135" class="hex" fill="#BBC77E" stroke="#444444" data-terrain="1" d="M1068.547,700.49L1039.685,750.48L981.962,750.48L953.1,700.49L981.962,650.5L1039.685,650.5L1068.547,700.49Z"></path><path id="136" class="hex" fill="#A67E36" stroke="#444444" data-terrain="6" d="M1241.747,700.49L1212.885,750.48L1155.162,750.48L1126.3,700.49L1155.162,650.5L1212.885,650.5L1241.747,700.49Z" opacity="1"></path><path id="137" class="hex" fill="#656D38" stroke="#444444" data-terrain="3" d="M1414.947,700.49L1386.085,750.48L1328.362,750.48L1299.5,700.49L1328.362,650.5L1386.085,650.5L1414.947,700.49Z" opacity="1"></path><path id="138" class="hex" fill="#656D38" stroke="#444444" data-terrain="3" d="M1588.147,700.49L1559.285,750.48L1501.562,750.48L1472.7,700.49L1501.562,650.5L1559.285,650.5L1588.147,700.49Z" opacity="1"></path><path id="139" class="hex" fill="#BBC77E" stroke="#444444" data-terrain="1" d="M1761.347,700.49L1732.485,750.48L1674.762,750.48L1645.9,700.49L1674.762,650.5L1732.485,650.5L1761.347,700.49Z"></path></g><g class="row"><path id="140" class="hex" fill="#85A35C" stroke="#444444" data-terrain="2" d="M115.947,750.49L87.085,800.48L29.362,800.48L0.5,750.49L29.362,700.5L87.085,700.5L115.947,750.49Z" opacity="1"></path><path id="141" class="hex" fill="#85A35C" stroke="#444444" data-terrain="2" d="M289.147,750.49L260.285,800.48L202.562,800.48L173.7,750.49L202.562,700.5L260.285,700.5L289.147,750.49Z" opacity="1"></path><path id="142" class="hex" fill="#BBC77E" stroke="#444444" data-terrain="1" d="M462.347,750.49L433.485,800.48L375.762,800.48L346.9,750.49L375.762,700.5L433.485,700.5L462.347,750.49Z"></path><path id="143" class="hex" fill="#BBC77E" stroke="#444444" data-terrain="1" d="M635.547,750.49L606.685,800.48L548.962,800.48L520.1,750.49L548.962,700.5L606.685,700.5L635.547,750.49Z"></path><path id="144" class="hex" fill="#666666" stroke="#444444" data-terrain="4" d="M808.747,750.49L779.885,800.48L722.162,800.48L693.3,750.49L722.162,700.5L779.885,700.5L808.747,750.49Z" opacity="1"></path><path id="145" class="hex" fill="#BBC77E" stroke="#444444" data-terrain="1" d="M981.947,750.49L953.085,800.48L895.362,800.48L866.5,750.49L895.362,700.5L953.085,700.5L981.947,750.49Z"></path><path id="146" class="hex" fill="#BBC77E" stroke="#444444" data-terrain="1" d="M1155.147,750.49L1126.285,800.48L1068.562,800.48L1039.7,750.49L1068.562,700.5L1126.285,700.5L1155.147,750.49Z"></path><path id="147" class="hex" fill="#A67E36" stroke="#444444" data-terrain="6" d="M1328.347,750.49L1299.485,800.48L1241.762,800.48L1212.9,750.49L1241.762,700.5L1299.485,700.5L1328.347,750.49Z" opacity="1"></path><path id="148" class="hex" fill="#656D38" stroke="#444444" data-terrain="3" d="M1501.547,750.49L1472.685,800.48L1414.962,800.48L1386.1,750.49L1414.962,700.5L1472.685,700.5L1501.547,750.49Z" opacity="1"></path><path id="149" class="hex" fill="#BBC77E" stroke="#444444" data-terrain="1" d="M1674.747,750.49L1645.885,800.48L1588.162,800.48L1559.3,750.49L1588.162,700.5L1645.885,700.5L1674.747,750.49Z"></path></g><g class="row"><path id="150" class="hex" fill="#85A35C" stroke="#444444" data-terrain="2" d="M202.547,800.49L173.685,850.48L115.962,850.48L87.1,800.49L115.962,750.5L173.685,750.5L202.547,800.49Z" opacity="1"></path><path id="151" class="hex" fill="#BBC77E" stroke="#444444" data-terrain="1" d="M375.747,800.49L346.885,850.48L289.162,850.48L260.3,800.49L289.162,750.5L346.885,750.5L375.747,800.49Z"></path><path id="152" class="hex" fill="#BBC77E" stroke="#444444" data-terrain="1" d="M548.947,800.49L520.085,850.48L462.362,850.48L433.5,800.49L462.362,750.5L520.085,750.5L548.947,800.49Z"></path><path id="153" class="hex" fill="#A67E36" stroke="#444444" data-terrain="6" d="M722.147,800.49L693.285,850.48L635.562,850.48L606.7,800.49L635.562,750.5L693.285,750.5L722.147,800.49Z" opacity="1"></path><path id="154" class="hex" fill="#A67E36" stroke="#444444" data-terrain="6" d="M895.347,800.49L866.485,850.48L808.762,850.48L779.9,800.49L808.762,750.5L866.485,750.5L895.347,800.49Z" opacity="1"></path><path id="155" class="hex" fill="#BBC77E" stroke="#444444" data-terrain="1" d="M1068.547,800.49L1039.685,850.48L981.962,850.48L953.1,800.49L981.962,750.5L1039.685,750.5L1068.547,800.49Z"></path><path id="156" class="hex" fill="#FFA100" stroke="#444444" data-terrain="8" d="M1241.747,800.49L1212.885,850.48L1155.162,850.48L1126.3,800.49L1155.162,750.5L1212.885,750.5L1241.747,800.49Z" opacity="1"></path><path id="157" class="hex" fill="#656D38" stroke="#444444" data-terrain="3" d="M1414.947,800.49L1386.085,850.48L1328.362,850.48L1299.5,800.49L1328.362,750.5L1386.085,750.5L1414.947,800.49Z" opacity="1"></path><path id="158" class="hex" fill="#BBC77E" stroke="#444444" data-terrain="1" d="M1588.147,800.49L1559.285,850.48L1501.562,850.48L1472.7,800.49L1501.562,750.5L1559.285,750.5L1588.147,800.49Z"></path><path id="159" class="hex" fill="#BBC77E" stroke="#444444" data-terrain="1" d="M1761.347,800.49L1732.485,850.48L1674.762,850.48L1645.9,800.49L1674.762,750.5L1732.485,750.5L1761.347,800.49Z"></path></g><g class="row"><path id="160" class="hex" fill="#85A35C" stroke="#444444" data-terrain="2" d="M115.947,850.49L87.085,900.48L29.362,900.48L0.5,850.49L29.362,800.5L87.085,800.5L115.947,850.49Z" opacity="1"></path><path id="161" class="hex" fill="#85A35C" stroke="#444444" data-terrain="2" d="M289.147,850.49L260.285,900.48L202.562,900.48L173.7,850.49L202.562,800.5L260.285,800.5L289.147,850.49Z" opacity="1"></path><path id="162" class="hex" fill="#75ABDD" stroke="#444444" data-terrain="7" d="M462.347,850.49L433.485,900.48L375.762,900.48L346.9,850.49L375.762,800.5L433.485,800.5L462.347,850.49Z" opacity="1"></path><path id="163" class="hex" fill="#BBC77E" stroke="#444444" data-terrain="1" d="M635.547,850.49L606.685,900.48L548.962,900.48L520.1,850.49L548.962,800.5L606.685,800.5L635.547,850.49Z"></path><path id="164" class="hex" fill="#BBC77E" stroke="#444444" data-terrain="1" d="M808.747,850.49L779.885,900.48L722.162,900.48L693.3,850.49L722.162,800.5L779.885,800.5L808.747,850.49Z"></path><path id="165" class="hex" fill="#BBC77E" stroke="#444444" data-terrain="1" d="M981.947,850.49L953.085,900.48L895.362,900.48L866.5,850.49L895.362,800.5L953.085,800.5L981.947,850.49Z"></path><path id="166" class="hex" fill="#FFA100" stroke="#444444" data-terrain="8" d="M1155.147,850.49L1126.285,900.48L1068.562,900.48L1039.7,850.49L1068.562,800.5L1126.285,800.5L1155.147,850.49Z" opacity="1"></path><path id="167" class="hex" fill="#A67E36" stroke="#444444" data-terrain="6" d="M1328.347,850.49L1299.485,900.48L1241.762,900.48L1212.9,850.49L1241.762,800.5L1299.485,800.5L1328.347,850.49Z" opacity="1"></path><path id="168" class="hex" fill="#BBC77E" stroke="#444444" data-terrain="1" d="M1501.547,850.49L1472.685,900.48L1414.962,900.48L1386.1,850.49L1414.962,800.5L1472.685,800.5L1501.547,850.49Z"></path><path id="169" class="hex" fill="#656D38" stroke="#444444" data-terrain="3" d="M1674.747,850.49L1645.885,900.48L1588.162,900.48L1559.3,850.49L1588.162,800.5L1645.885,800.5L1674.747,850.49Z" opacity="1"></path></g><g class="row"><path id="170" class="hex" fill="#85A35C" stroke="#444444" data-terrain="2" d="M202.547,900.49L173.685,950.48L115.962,950.48L87.1,900.49L115.962,850.5L173.685,850.5L202.547,900.49Z" opacity="1"></path><path id="171" class="hex" fill="#75ABDD" stroke="#444444" data-terrain="7" d="M375.747,900.49L346.885,950.48L289.162,950.48L260.3,900.49L289.162,850.5L346.885,850.5L375.747,900.49Z" opacity="1"></path><path id="172" class="hex" fill="#75ABDD" stroke="#444444" data-terrain="7" d="M548.947,900.49L520.085,950.48L462.362,950.48L433.5,900.49L462.362,850.5L520.085,850.5L548.947,900.49Z" opacity="1"></path><path id="173" class="hex" fill="#BBC77E" stroke="#444444" data-terrain="1" d="M722.147,900.49L693.285,950.48L635.562,950.48L606.7,900.49L635.562,850.5L693.285,850.5L722.147,900.49Z"></path><path id="174" class="hex" fill="#BBC77E" stroke="#444444" data-terrain="1" d="M895.347,900.49L866.485,950.48L808.762,950.48L779.9,900.49L808.762,850.5L866.485,850.5L895.347,900.49Z"></path><path id="175" class="hex" fill="#BBC77E" stroke="#444444" data-terrain="1" d="M1068.547,900.49L1039.685,950.48L981.962,950.48L953.1,900.49L981.962,850.5L1039.685,850.5L1068.547,900.49Z"></path><path id="176" class="hex" fill="#A67E36" stroke="#444444" data-terrain="6" d="M1241.747,900.49L1212.885,950.48L1155.162,950.48L1126.3,900.49L1155.162,850.5L1212.885,850.5L1241.747,900.49Z" opacity="1"></path><path id="177" class="hex" fill="#BBC77E" stroke="#444444" data-terrain="1" d="M1414.947,900.49L1386.085,950.48L1328.362,950.48L1299.5,900.49L1328.362,850.5L1386.085,850.5L1414.947,900.49Z"></path><path id="178" class="hex" fill="#A67E36" stroke="#444444" data-terrain="6" d="M1588.147,900.49L1559.285,950.48L1501.562,950.48L1472.7,900.49L1501.562,850.5L1559.285,850.5L1588.147,900.49Z" opacity="1"></path><path id="179" class="hex" fill="#BBC77E" stroke="#444444" data-terrain="1" d="M1761.347,900.49L1732.485,950.48L1674.762,950.48L1645.9,900.49L1674.762,850.5L1732.485,850.5L1761.347,900.49Z"></path></g><g class="row"><path id="180" class="hex" fill="#75ABDD" stroke="#444444" data-terrain="7" d="M115.947,950.49L87.085,1000.48L29.362,1000.48L0.5,950.49L29.362,900.5L87.085,900.5L115.947,950.49Z" opacity="1"></path><path id="181" class="hex" fill="#75ABDD" stroke="#444444" data-terrain="7" d="M289.147,950.49L260.285,1000.48L202.562,1000.48L173.7,950.49L202.562,900.5L260.285,900.5L289.147,950.49Z" opacity="1"></path><path id="182" class="hex" fill="#75ABDD" stroke="#444444" data-terrain="7" d="M462.347,950.49L433.485,1000.48L375.762,1000.48L346.9,950.49L375.762,900.5L433.485,900.5L462.347,950.49Z" opacity="1"></path><path id="183" class="hex" fill="#BBC77E" stroke="#444444" data-terrain="1" d="M635.547,950.49L606.685,1000.48L548.962,1000.48L520.1,950.49L548.962,900.5L606.685,900.5L635.547,950.49Z"></path><path id="184" class="hex" fill="#BBC77E" stroke="#444444" data-terrain="1" d="M808.747,950.49L779.885,1000.48L722.162,1000.48L693.3,950.49L722.162,900.5L779.885,900.5L808.747,950.49Z"></path><path id="185" class="hex" fill="#BBC77E" stroke="#444444" data-terrain="1" d="M981.947,950.49L953.085,1000.48L895.362,1000.48L866.5,950.49L895.362,900.5L953.085,900.5L981.947,950.49Z"></path><path id="186" class="hex" fill="#FFA100" stroke="#444444" data-terrain="8" d="M1155.147,950.49L1126.285,1000.48L1068.562,1000.48L1039.7,950.49L1068.562,900.5L1126.285,900.5L1155.147,950.49Z" opacity="1"></path><path id="187" class="hex" fill="#BBC77E" stroke="#444444" data-terrain="1" d="M1328.347,950.49L1299.485,1000.48L1241.762,1000.48L1212.9,950.49L1241.762,900.5L1299.485,900.5L1328.347,950.49Z" opacity="1"></path><path id="188" class="hex" fill="#A67E36" stroke="#444444" data-terrain="6" d="M1501.547,950.49L1472.685,1000.48L1414.962,1000.48L1386.1,950.49L1414.962,900.5L1472.685,900.5L1501.547,950.49Z" opacity="1"></path><path id="189" class="hex" fill="#656D38" stroke="#444444" data-terrain="3" d="M1674.747,950.49L1645.885,1000.48L1588.162,1000.48L1559.3,950.49L1588.162,900.5L1645.885,900.5L1674.747,950.49Z" opacity="1"></path></g><g class="row"><path id="190" class="hex" fill="#75ABDD" stroke="#444444" data-terrain="7" d="M202.547,1000.49L173.685,1050.48L115.962,1050.48L87.1,1000.49L115.962,950.5L173.685,950.5L202.547,1000.49Z" opacity="1"></path><path id="191" class="hex" fill="#75ABDD" stroke="#444444" data-terrain="7" d="M375.747,1000.49L346.885,1050.48L289.162,1050.48L260.3,1000.49L289.162,950.5L346.885,950.5L375.747,1000.49Z" opacity="1"></path><path id="192" class="hex" fill="#75ABDD" stroke="#444444" data-terrain="7" d="M548.947,1000.49L520.085,1050.48L462.362,1050.48L433.5,1000.49L462.362,950.5L520.085,950.5L548.947,1000.49Z" opacity="1"></path><path id="193" class="hex" fill="#BBC77E" stroke="#444444" data-terrain="1" d="M722.147,1000.49L693.285,1050.48L635.562,1050.48L606.7,1000.49L635.562,950.5L693.285,950.5L722.147,1000.49Z"></path><path id="194" class="hex" fill="#BBC77E" stroke="#444444" data-terrain="1" d="M895.347,1000.49L866.485,1050.48L808.762,1050.48L779.9,1000.49L808.762,950.5L866.485,950.5L895.347,1000.49Z"></path><path id="195" class="hex" fill="#BBC77E" stroke="#444444" data-terrain="1" d="M1068.547,1000.49L1039.685,1050.48L981.962,1050.48L953.1,1000.49L981.962,950.5L1039.685,950.5L1068.547,1000.49Z"></path><path id="196" class="hex" fill="#A67E36" stroke="#444444" data-terrain="6" d="M1241.747,1000.49L1212.885,1050.48L1155.162,1050.48L1126.3,1000.49L1155.162,950.5L1212.885,950.5L1241.747,1000.49Z" opacity="1"></path><path id="197" class="hex" fill="#BBC77E" stroke="#444444" data-terrain="1" d="M1414.947,1000.49L1386.085,1050.48L1328.362,1050.48L1299.5,1000.49L1328.362,950.5L1386.085,950.5L1414.947,1000.49Z" opacity="1"></path><path id="198" class="hex" fill="#A67E36" stroke="#444444" data-terrain="6" d="M1588.147,1000.49L1559.285,1050.48L1501.562,1050.48L1472.7,1000.49L1501.562,950.5L1559.285,950.5L1588.147,1000.49Z" opacity="1"></path><path id="199" class="hex" fill="#BBC77E" stroke="#444444" data-terrain="1" d="M1761.347,1000.49L1732.485,1050.48L1674.762,1050.48L1645.9,1000.49L1674.762,950.5L1732.485,950.5L1761.347,1000.49Z"></path></g></svg>